<svg xmlns="http://www.w3.org/2000/svg">
<!--!
Font Awesome Free v7.2.0 by @fontawesome - https://fontawesome.com
License - https://fontawesome.com/license/free
Copyright 2026 Fonticons, Inc.
-->

  <symbol id="pencil" viewBox="0 0 640 640">
    <path d="M100.4 417.2C104.5 402.6 112.2 389.3 123 378.5L304.2 197.3L338.1 163.4C354.7 180 389.4 214.7 442.1 267.4L476 301.3L442.1 335.2L260.9 516.4C250.2 527.1 236.8 534.9 222.2 539L94.4 574.6C86.1 576.9 77.1 574.6 71 568.4C64.9 562.2 62.6 553.3 64.9 545L100.4 417.2zM156 413.5C151.6 418.2 148.4 423.9 146.7 430.1L122.6 517L209.5 492.9C215.9 491.1 221.7 487.8 226.5 483.2L155.9 413.5zM510 267.4C493.4 250.8 458.7 216.1 406 163.4L372 129.5C398.5 103 413.4 88.1 416.9 84.6C430.4 71 448.8 63.4 468 63.4C487.2 63.4 505.6 71 519.1 84.6L554.8 120.3C568.4 133.9 576 152.3 576 171.4C576 190.5 568.4 209 554.8 222.5C551.3 226 536.4 240.9 509.9 267.4z"/>
  </symbol>

  <symbol id="eraser" viewBox="0 0 640 640">
    <path d="M210.5 480L333.5 480L398.8 414.7L225.3 241.2L98.6 367.9L210.6 479.9zM256 544L210.5 544C193.5 544 177.2 537.3 165.2 525.3L49 409C38.1 398.1 32 383.4 32 368C32 352.6 38.1 337.9 49 327L295 81C305.9 70.1 320.6 64 336 64C351.4 64 366.1 70.1 377 81L559 263C569.9 273.9 576 288.6 576 304C576 319.4 569.9 334.1 559 345L424 480L544 480C561.7 480 576 494.3 576 512C576 529.7 561.7 544 544 544L256 544z"/>
  </symbol>

  <symbol id="eye-dropper" viewBox="0 0 640 640">
    <path d="M405.6 93.2L304 194.8L294.6 185.4C282.1 172.9 261.8 172.9 249.3 185.4C236.8 197.9 236.8 218.2 249.3 230.7L409.3 390.7C421.8 403.2 442.1 403.2 454.6 390.7C467.1 378.2 467.1 357.9 454.6 345.4L445.2 336L546.8 234.4C585.8 195.4 585.8 132.2 546.8 93.3C507.8 54.4 444.6 54.3 405.7 93.3zM119.4 387.3C104.4 402.3 96 422.7 96 443.9L96 486.3L69.4 526.2C60.9 538.9 62.6 555.8 73.4 566.6C84.2 577.4 101.1 579.1 113.8 570.6L153.7 544L196.1 544C217.3 544 237.7 535.6 252.7 520.6L362.1 411.2L316.8 365.9L207.4 475.3C204.4 478.3 200.3 480 196.1 480L160 480L160 443.9C160 439.7 161.7 435.6 164.7 432.6L274.1 323.2L228.8 277.9L119.4 387.3z"/>
  </symbol>

  <symbol id="slash" viewBox="0 0 640 640">
    <path d="M39 39C48.4 29.6 63.6 29.6 72.9 39L601 567C610.4 576.4 610.4 591.6 601 600.9C591.6 610.2 576.4 610.3 567.1 600.9L39 73C29.7 63.6 29.7 48.4 39 39z"/>
  </symbol>

  <symbol id="arrows-up-down-left-right" viewBox="0 0 640 640">
    <path d="M342.6 73.4C330.1 60.9 309.8 60.9 297.3 73.4L233.3 137.4C220.8 149.9 220.8 170.2 233.3 182.7C245.8 195.2 266.1 195.2 278.6 182.7L288 173.3L288 288L173.3 288L182.7 278.6C195.2 266.1 195.2 245.8 182.7 233.3C170.2 220.8 149.9 220.8 137.4 233.3L73.4 297.3C60.9 309.8 60.9 330.1 73.4 342.6L137.4 406.6C149.9 419.1 170.2 419.1 182.7 406.6C195.2 394.1 195.2 373.8 182.7 361.3L173.3 351.9L288 351.9L288 466.6L278.6 457.2C266.1 444.7 245.8 444.7 233.3 457.2C220.8 469.7 220.8 490 233.3 502.5L297.3 566.5C309.8 579 330.1 579 342.6 566.5L406.6 502.5C419.1 490 419.1 469.7 406.6 457.2C394.1 444.7 373.8 444.7 361.3 457.2L351.9 466.6L351.9 351.9L466.6 351.9L457.2 361.3C444.7 373.8 444.7 394.1 457.2 406.6C469.7 419.1 490 419.1 502.5 406.6L566.5 342.6C579 330.1 579 309.8 566.5 297.3L502.5 233.3C490 220.8 469.7 220.8 457.2 233.3C444.7 245.8 444.7 266.1 457.2 278.6L466.6 288L351.9 288L351.9 173.3L361.3 182.7C373.8 195.2 394.1 195.2 406.6 182.7C419.1 170.2 419.1 149.9 406.6 137.4L342.6 73.4z"/>
  </symbol>
</svg>